<?xml version="1.0" encoding="UTF-8"?>
<svg version="1.1" xmlns="http://www.w3.org/2000/svg" width="220" height="220">
<path d="M0 0 C8.54514088 7.72247203 13.12897488 17.77093806 13.71875 29.21484375 C14.02145772 46.88179179 11.63887778 63.67716977 5.515625 80.2734375 C5.1446167 81.2953418 5.1446167 81.2953418 4.76611328 82.33789062 C-1.19573176 98.49063587 -9.75962041 112.83403915 -20.484375 126.2734375 C-21.49177734 127.58634766 -21.49177734 127.58634766 -22.51953125 128.92578125 C-40.41742661 151.70796207 -64.72573906 171.02055885 -92.484375 180.2734375 C-94.859375 180.51171875 -94.859375 180.51171875 -97.484375 180.5859375 C-98.350625 180.62332031 -99.216875 180.66070312 -100.109375 180.69921875 C-102.484375 180.2734375 -102.484375 180.2734375 -104.296875 178.4453125 C-105.484375 176.2734375 -105.484375 176.2734375 -105.484375 173.2109375 C-104.2339618 169.53784871 -102.87164902 168.96707451 -99.484375 167.2734375 C-97.17874014 162.66216779 -97.82028198 157.27419436 -99.40234375 152.5078125 C-105.9602864 138.43035203 -116.22436314 127.30135431 -127.234375 116.5859375 C-136.99957349 107.07036152 -145.23286747 97.89613284 -148.484375 84.2734375 C-148.71125 83.3453125 -148.938125 82.4171875 -149.171875 81.4609375 C-150.35133162 69.43047995 -149.55478355 58.45775527 -142.28515625 48.41015625 C-135.21925452 40.02610366 -127.91722702 35.04235226 -116.87109375 34.03515625 C-110.56217049 33.86168369 -105.51902668 34.20403494 -100.484375 38.2734375 C-96.56661868 42.39253461 -94.13169346 46.46472881 -93.796875 52.2109375 C-94.26816553 59.23645449 -97.1232281 65.168937 -102.359375 69.8359375 C-107.67108037 72.27932197 -111.64875817 72.73355867 -117.234375 71.0859375 C-119.72131854 70.13267975 -121.44605625 69.30362803 -123.546875 67.6484375 C-124.99925132 63.96908415 -125.215 60.16294118 -124.484375 56.2734375 C-123.0859375 54.49609375 -123.0859375 54.49609375 -121.484375 53.2734375 C-120.824375 53.2734375 -120.164375 53.2734375 -119.484375 53.2734375 C-119.484375 52.2834375 -119.484375 51.2934375 -119.484375 50.2734375 C-123.07650947 50.52405153 -125.15600901 51.03889036 -128.109375 53.1484375 C-133.48439896 60.22083744 -135.65638501 68.47646827 -134.484375 77.2734375 C-133.4128476 82.06459825 -132.21854637 86.17218045 -129.484375 90.2734375 C-126.77268111 91.17733546 -125.10973621 91.40632989 -122.31640625 91.44921875 C-121.50494141 91.47306641 -120.69347656 91.49691406 -119.85742188 91.52148438 C-118.17016699 91.56395532 -116.4825955 91.59547239 -114.79492188 91.61523438 C-107.49675288 91.86253246 -101.26786918 93.98390004 -95.921875 99.1484375 C-83.53047105 112.4451495 -79.0227385 134.84302233 -79.58984375 152.5703125 C-79.80849516 154.8138661 -80.13099226 157.04712623 -80.484375 159.2734375 C-57.93666847 144.34749092 -49.35518168 123.34200316 -43.984375 97.5859375 C-43.79480225 96.62381348 -43.60522949 95.66168945 -43.40991211 94.67041016 C-40.90239073 82.40323255 -36.56152693 71.9147929 -26.73828125 63.76171875 C-23.78433507 61.81119276 -20.62314012 60.38670116 -17.421875 58.8984375 C-10.25597728 55.53110304 -6.31340205 51.83960994 -3.3671875 44.484375 C-1.12312715 36.32235017 -1.15698656 26.75496989 -5.2265625 19.19921875 C-9.86587303 12.09617498 -14.58050297 7.57444274 -23.0546875 5.70703125 C-32.08326537 4.48521516 -39.84793438 6.15261881 -47.234375 11.5234375 C-50.43945707 13.83247512 -51.22174558 14.26496558 -55.359375 14.3984375 C-58.484375 13.2734375 -58.484375 13.2734375 -60.484375 11.6484375 C-62.03601803 7.96328531 -61.71175572 6.08477762 -60.484375 2.2734375 C-54.10987053 -5.44051981 -45.09996137 -8.97470484 -35.4375 -10.47265625 C-21.98437968 -11.62933988 -10.65684239 -8.19054458 0 0 Z " fill="#201C1E" transform="translate(189.484375,35.7265625)"/>
<path d="M0 0 C5.3262635 3.75259474 9.56816042 8.37172454 10.75 14.9375 C10.82810627 21.01863134 9.64294337 26.18077284 5.75 30.9375 C1.73164126 34.96629603 -2.30363509 36.74150101 -7.98046875 37.0703125 C-13.25678384 36.76154363 -17.01630368 34.95187253 -21.0625 31.625 C-25.34498753 26.36365818 -26.84889671 22.19673892 -26.5859375 15.4609375 C-25.89543949 10.2741734 -24.12407266 6.72378514 -20.33203125 3.109375 C-13.77199958 -1.85999412 -7.7589255 -2.5365718 0 0 Z M-12.5625 13.5625 C-14.5713192 15.87722306 -14.5713192 15.87722306 -14.125 19.0625 C-13.46691176 22.03431373 -13.46691176 22.03431373 -11.25 23.9375 C-8.15228335 24.26704432 -6.07668977 24.39084601 -3.3125 22.875 C-1.58334322 19.72183176 -2.3909301 17.31241745 -3.25 13.9375 C-6.89490207 11.50756529 -8.86577189 10.96479917 -12.5625 13.5625 Z " fill="#211D1F" transform="translate(168.25,52.0625)"/>
<path d="M0 0 C0.66 1.32 1.32 2.64 2 4 C1.175 4.680625 0.35 5.36125 -0.5 6.0625 C-3.28932162 8.82274631 -3.28932162 8.82274631 -3.5625 12.5625 C-3.24317661 15.9988077 -3.24317661 15.9988077 -1.375 18.4375 C1.64050733 20.4213864 3.44619148 20.22211303 7 20 C8.33981486 20.3062434 9.67511887 20.63451555 11 21 C11.99 21 12.98 21 14 21 C14 21.66 14 22.32 14 23 C7.97102138 24.41103755 3.60112834 23.67199535 -2 21 C-4.45072482 19.0691259 -4.88692138 17.90299018 -5.26953125 14.84765625 C-5.53919709 8.68529239 -5.53919709 8.68529239 -3.6015625 6.22265625 C-2 5 -2 5 0 5 C0 4.01 0 3.02 0 2 C-3.59213447 2.25061403 -5.67163401 2.76545286 -8.625 4.875 C-14.69784652 12.86558753 -15.61507639 21.21003412 -15 31 C-15.66 31.33 -16.32 31.66 -17 32 C-17.51260091 21.32081446 -17.06729304 13.10093957 -11 4 C-7.46968622 0.46968622 -4.96544529 -0.27585807 0 0 Z " fill="#282426" transform="translate(70,84)"/>
<path d="M0 0 C0 0.99 0 1.98 0 3 C-1.75 4.359375 -1.75 4.359375 -4 5.75 C-7.64540315 8.30170574 -7.64540315 8.30170574 -8.6875 12.75 C-8.33630086 16.28080334 -8.33630086 16.28080334 -5 18 C-4.67 17.34 -4.34 16.68 -4 16 C-3.34 16.103125 -2.68 16.20625 -2 16.3125 C1.86819215 15.90956332 4.07196246 14.26786523 7.23046875 12.09375 C9 11 9 11 11 11 C11 11.66 11 12.32 11 13 C10.38511719 13.33773437 9.77023438 13.67546875 9.13671875 14.0234375 C8.32847656 14.46945313 7.52023438 14.91546875 6.6875 15.375 C5.48673828 16.03628906 5.48673828 16.03628906 4.26171875 16.7109375 C2.46472057 17.73513335 0.72099292 18.85267138 -1 20 C-4.68256285 19.8684799 -7.09748237 19.73329557 -10 17.375 C-11.55164303 13.68984781 -11.22738072 11.81134012 -10 8 C-7.09796295 4.80015565 -3.87935277 1.93967638 0 0 Z " fill="#292426" transform="translate(139,30)"/>
<path d="M0 0 C5.66021072 2.5818505 10.75219392 5.35396211 15 10 C15 10.66 15 11.32 15 12 C11.33428949 10.32792152 8.73953221 8.12684747 5.78125 5.4375 C3.94516459 3.95574686 2.14087614 2.97653999 0 2 C0 1.34 0 0.68 0 0 Z " fill="#282426" transform="translate(178,29)"/>
</svg>
